<svg width="112" height="113" viewBox="0 0 112 113" fill="none" xmlns="http://www.w3.org/2000/svg">
<path d="M41.3488 63.8125C38.6535 63.8125 36.5343 62.2109 36.1437 59.9062H39.0539C39.3371 60.8535 40.2648 61.4785 41.3976 61.4785C43.341 61.4785 44.5226 59.6328 44.4445 56.4004C44.4347 56.4004 44.4152 56.4004 44.4152 56.4004H44.3957H44.3859C43.8781 57.7773 42.4914 58.7051 40.6359 58.7051C37.9796 58.7051 35.9582 56.7324 35.9582 54.0566C35.9582 51.1562 38.2433 49.0859 41.3878 49.0859C43.4191 49.0859 45.1085 49.9941 46.0851 51.6641C46.8664 52.8652 47.2667 54.4473 47.2667 56.332C47.2667 61 45.0597 63.8125 41.3488 63.8125ZM41.4074 56.4883C42.8722 56.4883 43.9855 55.4141 43.9855 53.9883C43.9855 52.5527 42.8625 51.4395 41.4269 51.4395C39.9816 51.4395 38.839 52.5527 38.839 53.9688C38.839 55.4141 39.9425 56.4883 41.4074 56.4883ZM54.8152 63.8125C51.7878 63.8125 49.6101 62.0156 49.5222 59.4668H52.2468C52.4128 60.6582 53.4675 61.4785 54.8347 61.4785C56.3777 61.4785 57.4421 60.4043 57.4421 58.8711C57.4421 57.3086 56.3777 56.2148 54.8542 56.2148C53.7898 56.2148 52.8718 56.7031 52.3835 57.5137H49.7468L50.4402 49.4082H59.405V51.752H52.7546L52.4324 55.6094H52.491C53.0671 54.6621 54.1902 54.0664 55.6257 54.0664C58.321 54.0664 60.2546 56.0488 60.2546 58.793C60.2546 61.7812 58.0476 63.8125 54.8152 63.8125ZM68.1644 52.7871C68.1644 55.0332 66.9242 56.4395 64.9515 56.4395C62.9886 56.4395 61.7386 55.0332 61.7386 52.7871C61.7386 50.5508 62.9886 49.1348 64.9515 49.1348C66.9242 49.1348 68.1644 50.5508 68.1644 52.7871ZM64.9515 54.7109C65.5863 54.7109 65.9769 53.9883 65.9769 52.7773C65.9769 51.5664 65.5863 50.834 64.9515 50.834C64.3167 50.834 63.9261 51.5664 63.9261 52.7773C63.9261 53.9883 64.3167 54.7109 64.9515 54.7109ZM65.4984 63.5H63.1351L68.6039 56.0098L73.4183 49.4082H75.7718L70.4593 56.6934L65.4984 63.5ZM77.1683 60.043C77.1683 62.2891 75.9281 63.7051 73.9554 63.7051C71.9925 63.7051 70.7425 62.2891 70.7425 60.043C70.7425 57.8066 71.9925 56.3906 73.9554 56.3906C75.9281 56.3906 77.1683 57.8066 77.1683 60.043ZM73.9554 61.9668C74.5902 61.9668 74.9808 61.2441 74.9808 60.0332C74.9808 58.8223 74.5902 58.0898 73.9554 58.0898C73.3207 58.0898 72.93 58.8223 72.93 60.0332C72.93 61.2441 73.3207 61.9668 73.9554 61.9668Z" fill="black"/>
<path fill-rule="evenodd" clip-rule="evenodd" d="M56.3972 98.9684C79.8518 98.9684 98.8656 79.9546 98.8656 56.5C98.8656 33.0454 79.8518 14.0316 56.3972 14.0316C32.9426 14.0316 13.9289 33.0454 13.9289 56.5C13.9289 79.9546 32.9426 98.9684 56.3972 98.9684ZM56.3972 111.5C86.7729 111.5 111.397 86.8757 111.397 56.5C111.397 26.1243 86.7729 1.5 56.3972 1.5C26.0216 1.5 1.39722 26.1243 1.39722 56.5C1.39722 86.8757 26.0216 111.5 56.3972 111.5Z" fill="#EEEEEE"/>
<path fill-rule="evenodd" clip-rule="evenodd" d="M63.3637 1.41284C61.0817 1.12716 58.7567 0.97998 56.3972 0.97998C25.7344 0.97998 0.877197 25.8371 0.877197 56.5C0.877197 87.1629 25.7344 112.02 56.3972 112.02C87.0601 112.02 111.917 87.1629 111.917 56.5C111.917 37.8233 102.695 21.3005 88.5563 11.2368L80.4041 20.9772C91.7862 28.6846 99.2671 41.7187 99.2671 56.5C99.2671 80.1764 80.0736 99.3699 56.3972 99.3699C32.7208 99.3699 13.5273 80.1764 13.5273 56.5C13.5273 32.8236 32.7208 13.6301 56.3972 13.6301C58.466 13.6301 60.5005 13.7766 62.491 14.0599L63.3637 1.41284Z" fill="#FF7D41"/>
</svg>
