<svg width="20" height="22" viewBox="0 0 20 22" fill="none" xmlns="http://www.w3.org/2000/svg">
<path d="M16.5707 16.9C17.0107 16.21 17.2607 15.38 17.2607 14.5C17.2607 12 15.2607 10 12.7607 10C10.2607 10 8.26074 12 8.26074 14.5C8.26074 17 10.2607 19 12.7607 19C13.6307 19 14.4507 18.75 15.1407 18.32L18.2607 21.39L19.6507 20L16.5707 16.9ZM12.7607 17C12.0977 17 11.4618 16.7366 10.993 16.2678C10.5241 15.7989 10.2607 15.163 10.2607 14.5C10.2607 13.837 10.5241 13.2011 10.993 12.7322C11.4618 12.2634 12.0977 12 12.7607 12C13.4238 12 14.0597 12.2634 14.5285 12.7322C14.9973 13.2011 15.2607 13.837 15.2607 14.5C15.2607 15.163 14.9973 15.7989 14.5285 16.2678C14.0597 16.7366 13.4238 17 12.7607 17ZM6.85074 17.2L0.260742 12.07L1.88074 10.81L6.26074 14.22V14.5C6.26074 15.46 6.48074 16.38 6.85074 17.2ZM1.89074 8.27L0.260742 7L9.26074 0L18.2607 7L16.6207 8.27L15.9107 8.82C14.9807 8.3 13.9007 8 12.7607 8C10.0507 8 7.72074 9.68 6.76074 12.05L1.89074 8.27Z" fill="black"/>
</svg>
