<svg width="110" height="36" viewBox="0 0 110 36" fill="none" xmlns="http://www.w3.org/2000/svg">
<path d="M52.1098 7.4025H58.6692C65.2696 7.4025 70.5171 11.4611 70.5171 18.3075C70.5171 25.7688 66.0075 29.5814 58.6692 29.5814H52.1098V7.4025ZM55.2665 26.7937H58.5872C64.0397 26.7937 67.0734 24.1699 67.0734 18.4305C67.0734 13.2649 63.5477 10.1902 58.9562 10.1902H55.2255V26.7937H55.2665Z" fill="white"/>
<path d="M77.8963 9.73925H74.5347V6.37756H77.8963V9.73925ZM74.6987 13.3879H77.6914V29.6224H74.6987V13.3879Z" fill="white"/>
<path d="M83.2669 7.4025H89.8263C96.4267 7.4025 101.674 11.4611 101.674 18.3075C101.674 25.7688 97.1646 29.5814 89.8263 29.5814H83.2669V7.4025ZM86.4646 26.7937H89.7853C95.2378 26.7937 98.2715 24.1699 98.2715 18.4305C98.2715 13.2649 94.7458 10.1902 90.1543 10.1902H86.4236V26.7937H86.4646Z" fill="white"/>
<path d="M109.053 9.73925H105.692V6.37756H109.053V9.73925ZM105.897 13.3879H108.889V29.6224H105.897V13.3879Z" fill="white"/>
<path fill-rule="evenodd" clip-rule="evenodd" d="M22.5925 27.7776C29.9718 27.5316 35.7933 21.6692 35.8753 14.4128V8.14041H43.9925V15.0688C43.8285 26.3427 34.0304 35.1979 22.5925 35.4439C10.9496 35.3619 1.06952 26.4247 0.946533 15.0688V2.64692C0.946533 1.37604 1.76646 0.556122 2.99634 0.556122H35.8753V8.14041H10.0887C9.43274 8.14041 9.02278 8.55037 9.02278 9.20631V14.2898C9.10477 21.6282 15.0492 27.6956 22.5925 27.7776Z" fill="white"/>
</svg>
