<svg width="23" height="16" viewBox="0 0 23 16" fill="none" xmlns="http://www.w3.org/2000/svg">
<path d="M11.1073 0.5C6.10727 0.5 1.83727 3.61 0.107269 8C1.83727 12.39 6.10727 15.5 11.1073 15.5C16.1073 15.5 20.3773 12.39 22.1073 8C20.3773 3.61 16.1073 0.5 11.1073 0.5ZM11.1073 13C8.34727 13 6.10727 10.76 6.10727 8C6.10727 5.24 8.34727 3 11.1073 3C13.8673 3 16.1073 5.24 16.1073 8C16.1073 10.76 13.8673 13 11.1073 13ZM11.1073 5C9.44727 5 8.10727 6.34 8.10727 8C8.10727 9.66 9.44727 11 11.1073 11C12.7673 11 14.1073 9.66 14.1073 8C14.1073 6.34 12.7673 5 11.1073 5Z" fill="#A8AAAA"/>
</svg>
