<svg width="18" height="22" viewBox="0 0 18 22" fill="none" xmlns="http://www.w3.org/2000/svg">
<path d="M10.9467 10.5912C10.8809 10.59 10.8167 10.612 10.7655 10.6533C10.7142 10.6947 10.6792 10.7528 10.6666 10.8174L10.4619 12.2395C10.1387 12.3796 9.82626 12.552 9.54615 12.7459L8.21024 12.2072C8.09173 12.2072 7.95167 12.2072 7.87626 12.3473L6.79892 14.2111C6.73428 14.3296 6.75582 14.4696 6.86356 14.5558L8.00555 15.4392C7.96257 15.7971 7.96257 16.1588 8.00555 16.5166L6.86356 17.4C6.81514 17.4415 6.78235 17.4983 6.7706 17.561C6.75884 17.6237 6.76884 17.6885 6.79892 17.7448L7.87626 19.6085C7.9409 19.7486 8.08096 19.7486 8.21024 19.7486L9.54615 19.2099C9.82626 19.4039 10.1279 19.587 10.4619 19.7163L10.6666 21.1384C10.6881 21.2677 10.7959 21.3646 10.9467 21.3646H13.1014C13.2199 21.3646 13.3384 21.2677 13.36 21.1384L13.5646 19.7163C13.8879 19.5762 14.1787 19.4039 14.4696 19.2099L15.7948 19.7486C15.9348 19.7486 16.0749 19.7486 16.1503 19.6085L17.2276 17.7448C17.2577 17.6885 17.2677 17.6237 17.2559 17.561C17.2442 17.4983 17.2114 17.4415 17.163 17.4L16.0102 16.5166C16.0318 16.3334 16.0533 16.1611 16.0533 15.9779C16.0533 15.7948 16.0425 15.6224 16.0102 15.4392L17.1522 14.5558C17.2006 14.5143 17.2334 14.4575 17.2452 14.3948C17.2569 14.3321 17.2469 14.2673 17.2169 14.2111L16.1395 12.3473C16.0749 12.2072 15.9348 12.2072 15.7948 12.2072L14.4696 12.7459C14.1787 12.552 13.8879 12.3688 13.5539 12.2395L13.3492 10.8174C13.3424 10.7561 13.3135 10.6993 13.2679 10.6576C13.2223 10.616 13.1631 10.5924 13.1014 10.5912M12.024 14.3619C12.9182 14.3619 13.6401 15.0837 13.6401 15.9779C13.6401 16.8721 12.9182 17.5939 12.024 17.5939C11.1191 17.5939 10.408 16.8721 10.408 15.9779C10.408 15.0837 11.1299 14.3619 12.024 14.3619Z" fill="#A8AAAA"/>
<path d="M0.260742 18.0193V0.389999H9.44652L15.5704 6.26642V8.9932H8.42588L4.57012 11.6866V18.0193H0.260742ZM8.42588 7.24583H13.5291L8.42588 2.34881V7.24583Z" fill="#A8AAAA"/>
</svg>
