<svg width="20" height="20" viewBox="0 0 20 20" fill="none" xmlns="http://www.w3.org/2000/svg">
<path d="M0 17.0001V15.0001H2V8.00006C2 6.61673 2.41667 5.38739 3.25 4.31206C4.08333 3.23739 5.16667 2.53339 6.5 2.20006V1.50006C6.5 1.08339 6.646 0.729394 6.938 0.438061C7.22933 0.146061 7.58333 6.10352e-05 8 6.10352e-05C8.41667 6.10352e-05 8.77067 0.146061 9.062 0.438061C9.354 0.729394 9.5 1.08339 9.5 1.50006V2.20006C10.8333 2.53339 11.9167 3.23739 12.75 4.31206C13.5833 5.38739 14 6.61673 14 8.00006V15.0001H16V17.0001H0ZM8 20.0001C7.45 20.0001 6.97933 19.8044 6.588 19.4131C6.196 19.0211 6 18.5501 6 18.0001H10C10 18.5501 9.80433 19.0211 9.413 19.4131C9.021 19.8044 8.55 20.0001 8 20.0001Z" fill="black"/>
<circle cx="15" cy="6.00006" r="4" fill="#276EF1" stroke="white" stroke-width="2"/>
</svg>
