<svg width="19" height="19" viewBox="0 0 19 19" fill="none" xmlns="http://www.w3.org/2000/svg">
<path fill-rule="evenodd" clip-rule="evenodd" d="M13.3855 5.37523C13.3855 6.46918 12.9509 7.51834 12.1774 8.29188C11.4039 9.06542 10.3547 9.5 9.26074 9.5C8.16679 9.5 7.11763 9.06542 6.34409 8.29188C5.57055 7.51834 5.13597 6.46918 5.13597 5.37523C5.13597 4.28127 5.57055 3.23212 6.34409 2.45857C7.11763 1.68503 8.16679 1.25046 9.26074 1.25046C10.3547 1.25046 11.4039 1.68503 12.1774 2.45857C12.9509 3.23212 13.3855 4.28127 13.3855 5.37523ZM2.51074 15.5002C2.51074 13.0252 4.53574 11.0002 7.01074 11.0002H11.5107C13.9857 11.0002 16.0107 13.0252 16.0107 15.5002V17.7502H2.51074V15.5002Z" fill="#A8AAAA"/>
</svg>
